<?xml version="1.0" encoding="UTF-8"?>
<svg id="Layer_2" data-name="Layer 2" xmlns="http://www.w3.org/2000/svg" viewBox="0 0 790.64 219.05">
  <defs>
    <style>
      .cls-1 {
        fill: #215d77;
      }

      .cls-2 {
        fill: #fff;
      }

      .cls-3 {
        fill: none;
      }

      .cls-4 {
        fill: #fb7a38;
      }
    </style>
  </defs>
  <g id="Layer_1-2" data-name="Layer 1">
    <g>
      <rect class="cls-1" x="571.59" width="219.05" height="219.05" rx="12.46" ry="12.46"/>
      <g>
        <path class="cls-2" d="m680.01,43.22h0c-13.57,0-26.24,4.03-36.89,10.93-2.22-6.53-8.35-10.92-15.25-10.93h-16.12v68.24s0,.01,0,.02v66.7h16.12c8.93,0,16.12-7.19,16.12-16.12v-30.86h0v-19.73c.01-20.23,15.79-36.01,36.02-36.01s36.02,15.79,36.02,36.02v50.58c0,8.93,7.19,16.12,16.12,16.12h16.12v-66.7c0-37.54-30.72-68.26-68.26-68.26Z"/>
        <path class="cls-4" d="m680.01,95.37c-9.88,0-16.12,6.24-16.12,16.12v50.58c0,9.88,6.24,16.12,16.12,16.12s16.12-6.24,16.12-16.12v-50.58c0-9.88-6.23-16.12-16.12-16.12Z"/>
      </g>
      <polygon class="cls-1" points="59.91 97.62 51.5 97.62 51.5 87.47 59.91 97.62"/>
      <polygon class="cls-1" points="21.17 72.29 21.17 82.44 12.76 72.29 21.17 72.29"/>
      <polygon class="cls-1" points="72.67 67.8 72.67 123.15 54.89 123.15 21.17 82.44 21.17 72.29 12.76 72.29 21.17 82.44 21.17 123.15 0 123.15 0 46.76 17.78 46.76 51.5 87.47 51.5 97.62 59.91 97.62 51.5 87.47 51.5 46.76 51.63 46.76 72.67 67.8"/>
      <path class="cls-1" d="m115.24,124.68c-6.04,0-11.64-.97-16.81-2.89-5.17-1.93-9.62-4.67-13.37-8.24-3.75-3.56-6.68-7.77-8.78-12.6-2.11-4.84-3.16-10.17-3.16-15.99s1.05-11.15,3.16-15.99c2.11-4.84,5.06-9.04,8.84-12.6,3.78-3.56,8.28-6.31,13.48-8.24,5.2-1.93,10.89-2.89,17.08-2.89,7.2,0,13.64,1.2,19.32,3.6,5.67,2.4,10.37,5.86,14.08,10.37l-13.75,12.44c-2.62-2.84-5.44-4.97-8.46-6.38-3.02-1.42-6.38-2.13-10.09-2.13-3.27,0-6.26.51-8.95,1.53-2.69,1.02-4.98,2.49-6.88,4.42-1.89,1.93-3.37,4.22-4.42,6.88-1.06,2.66-1.58,5.66-1.58,9s.53,6.15,1.58,8.84c1.05,2.69,2.53,5,4.42,6.93,1.89,1.93,4.16,3.42,6.82,4.47,2.66,1.06,5.58,1.58,8.78,1.58s6.33-.53,9.39-1.58c3.06-1.05,6.15-2.85,9.28-5.4l12.11,15.17c-4.36,3.13-9.42,5.53-15.17,7.2-5.75,1.67-11.39,2.51-16.92,2.51Zm32.08-9.71l-19.1-2.84v-28.81h19.1v31.65Z"/>
      <path class="cls-1" d="m190.86,124.68c-6.11,0-11.75-.98-16.92-2.95-5.17-1.96-9.66-4.75-13.48-8.35s-6.78-7.8-8.89-12.6c-2.11-4.8-3.16-10.08-3.16-15.82s1.05-11.02,3.16-15.82c2.11-4.8,5.07-9,8.89-12.6s8.31-6.38,13.48-8.35c5.16-1.96,10.8-2.95,16.92-2.95s11.84.98,16.97,2.95c5.13,1.96,9.58,4.75,13.37,8.35,3.78,3.6,6.75,7.8,8.89,12.6,2.15,4.8,3.22,10.08,3.22,15.82s-1.07,11.04-3.22,15.88c-2.15,4.84-5.11,9.04-8.89,12.6-3.78,3.56-8.24,6.33-13.37,8.29-5.13,1.96-10.79,2.95-16.97,2.95Zm0-17.9c2.91,0,5.62-.51,8.13-1.53,2.51-1.02,4.69-2.49,6.55-4.42,1.86-1.93,3.31-4.24,4.36-6.93,1.05-2.69,1.58-5.67,1.58-8.95s-.53-6.35-1.58-9c-1.06-2.65-2.51-4.95-4.36-6.88-1.86-1.93-4.04-3.4-6.55-4.42-2.51-1.02-5.22-1.53-8.13-1.53s-5.62.51-8.13,1.53c-2.51,1.02-4.69,2.49-6.55,4.42-1.86,1.93-3.31,4.22-4.37,6.88-1.06,2.66-1.58,5.66-1.58,9s.53,6.26,1.58,8.95c1.05,2.69,2.51,5,4.37,6.93,1.86,1.93,4.04,3.4,6.55,4.42,2.51,1.02,5.22,1.53,8.13,1.53Z"/>
      <path class="cls-1" d="m276.2,124.68c-6.04,0-11.62-.97-16.75-2.89-5.13-1.93-9.57-4.67-13.31-8.24-3.75-3.56-6.68-7.77-8.78-12.6-2.11-4.84-3.16-10.17-3.16-15.99s1.05-11.15,3.16-15.99c2.11-4.84,5.04-9.04,8.78-12.6,3.75-3.56,8.18-6.31,13.31-8.24,5.13-1.93,10.71-2.89,16.75-2.89,7.06,0,13.37,1.24,18.93,3.71,5.57,2.47,10.2,6.04,13.91,10.69l-13.75,12.44c-2.47-2.91-5.18-5.13-8.13-6.66-2.95-1.53-6.24-2.29-9.88-2.29-3.13,0-6,.51-8.62,1.53-2.62,1.02-4.86,2.49-6.71,4.42-1.86,1.93-3.31,4.24-4.37,6.93-1.06,2.69-1.58,5.67-1.58,8.95s.53,6.26,1.58,8.95c1.05,2.69,2.51,5,4.37,6.93,1.86,1.93,4.09,3.4,6.71,4.42,2.62,1.02,5.49,1.53,8.62,1.53,3.64,0,6.93-.76,9.88-2.29,2.95-1.53,5.66-3.75,8.13-6.66l13.75,12.44c-3.71,4.58-8.35,8.13-13.91,10.64-5.57,2.51-11.88,3.77-18.93,3.77Z"/>
      <path class="cls-1" d="m311.23,123.15V46.76h39.07c10.04,0,17.53,1.84,22.48,5.51,4.95,3.67,7.42,8.49,7.42,14.46,0,3.93-1.04,7.37-3.11,10.31s-4.98,5.28-8.73,6.98c-3.75,1.71-8.2,2.56-13.37,2.56l2.18-5.24c5.38,0,10.08.82,14.08,2.46,4,1.64,7.11,4,9.33,7.09,2.22,3.09,3.33,6.86,3.33,11.3,0,6.62-2.67,11.77-8.02,15.44-5.35,3.68-13.15,5.51-23.41,5.51h-41.25Zm21.39-15.61h18.12c3.71,0,6.53-.64,8.46-1.91,1.93-1.27,2.89-3.22,2.89-5.84s-.96-4.56-2.89-5.84c-1.93-1.27-4.75-1.91-8.46-1.91h-19.64v-14.95h16.37c3.64,0,6.37-.62,8.18-1.86,1.82-1.24,2.73-3.09,2.73-5.57s-.91-4.31-2.73-5.51c-1.82-1.2-4.55-1.8-8.18-1.8h-14.84v45.18Z"/>
      <path class="cls-1" d="m379.43,123.15l33.72-76.39h21.28l33.83,76.39h-22.48l-26.41-65.8h8.51l-26.41,65.8h-22.04Zm18.44-14.84l5.57-15.93h37.32l5.57,15.93h-48.45Z"/>
      <path class="cls-1" d="m500.89,124.68c-6.11,0-11.75-.98-16.91-2.95-5.17-1.96-9.66-4.75-13.48-8.35s-6.78-7.8-8.89-12.6c-2.11-4.8-3.16-10.08-3.16-15.82s1.05-11.02,3.16-15.82c2.11-4.8,5.07-9,8.89-12.6s8.31-6.38,13.48-8.35c5.16-1.96,10.8-2.95,16.91-2.95s11.84.98,16.97,2.95c5.13,1.96,9.59,4.75,13.37,8.35,3.78,3.6,6.75,7.8,8.89,12.6,2.15,4.8,3.22,10.08,3.22,15.82s-1.07,11.04-3.22,15.88c-2.15,4.84-5.11,9.04-8.89,12.6-3.78,3.56-8.24,6.33-13.37,8.29-5.13,1.96-10.79,2.95-16.97,2.95Zm0-17.9c2.91,0,5.62-.51,8.13-1.53,2.51-1.02,4.69-2.49,6.55-4.42,1.85-1.93,3.31-4.24,4.37-6.93,1.05-2.69,1.58-5.67,1.58-8.95s-.53-6.35-1.58-9c-1.06-2.65-2.51-4.95-4.37-6.88-1.86-1.93-4.04-3.4-6.55-4.42-2.51-1.02-5.22-1.53-8.13-1.53s-5.62.51-8.13,1.53c-2.51,1.02-4.69,2.49-6.55,4.42-1.86,1.93-3.31,4.22-4.37,6.88-1.06,2.66-1.58,5.66-1.58,9s.53,6.26,1.58,8.95c1.05,2.69,2.51,5,4.37,6.93,1.85,1.93,4.04,3.4,6.55,4.42,2.51,1.02,5.22,1.53,8.13,1.53Z"/>
      <g>
        <path class="cls-1" d="m4.85,185.26v-32.34h15.13c3.87,0,6.85.76,8.85,2.26,2,1.5,2.96,3.44,2.96,5.95,0,1.68-.39,3.13-1.17,4.3-.73,1.11-1.71,2-2.91,2.63l-.84.44.9.29c.38.12.76.27,1.12.43,1.41.65,2.54,1.59,3.36,2.82.82,1.22,1.23,2.77,1.23,4.61,0,2.73-1.01,4.79-3.1,6.3-2.1,1.52-5.28,2.29-9.47,2.29H4.85Zm5.36-4.03h10.34c2.37,0,4.22-.4,5.51-1.19,1.35-.83,2.04-2.17,2.04-3.98s-.68-3.11-2.03-3.96c-1.29-.81-3.14-1.22-5.51-1.22h-10.34v10.36Zm0-14.34h9.11c2.21,0,3.95-.4,5.17-1.2,1.27-.83,1.91-2.09,1.91-3.74s-.64-2.96-1.91-3.79c-1.21-.8-2.95-1.2-5.17-1.2h-9.11v9.93Z"/>
        <path class="cls-1" d="m65.53,185.26l-3.29-7.67h-17.1l-3.28,7.67h-5.46l14.55-32.34h5.54l14.6,32.34h-5.56Zm-18.67-11.7h13.64l-6.83-15.91-6.81,15.91Zm5.79-24.37c.73-.4,1.27-.82,1.63-1.27.45-.56.68-1.19.68-1.88,0-.75-.26-1.36-.77-1.81-.5-.44-1.17-.67-1.99-.67-.89,0-1.77.25-2.63.73l-.93-1.86c.58-.38,1.21-.68,1.88-.89.78-.24,1.57-.36,2.34-.36.94,0,1.8.19,2.55.55.74.36,1.3.86,1.71,1.51.4.64.6,1.42.6,2.32,0,1.14-.32,2.16-.94,3.03-.59.83-1.51,1.55-2.73,2.16l-1.4-1.57Z"/>
        <path class="cls-1" d="m90.97,185.73c-2.52,0-4.88-.42-7-1.25-2.12-.83-3.99-2-5.55-3.49-1.56-1.49-2.79-3.26-3.65-5.26-.86-2.01-1.29-4.24-1.29-6.64s.44-4.63,1.29-6.64c.86-2.01,2.08-3.78,3.65-5.26,1.56-1.49,3.43-2.66,5.55-3.49,2.12-.83,4.46-1.25,6.95-1.25s4.87.42,6.98,1.25c2.1.83,3.96,2,5.53,3.49,1.56,1.49,2.79,3.26,3.65,5.26.86,2.01,1.29,4.24,1.29,6.64s-.44,4.64-1.29,6.66c-.86,2.02-2.08,3.79-3.65,5.26-1.57,1.47-3.43,2.64-5.53,3.47-2.11.83-4.44,1.25-6.93,1.25Zm-.05-28.68c-1.72,0-3.32.3-4.76.88-1.45.59-2.74,1.44-3.82,2.53-1.09,1.09-1.95,2.37-2.55,3.82-.6,1.45-.91,3.07-.91,4.82s.3,3.33.91,4.79c.6,1.46,1.45,2.75,2.52,3.84,1.07,1.09,2.36,1.94,3.83,2.53,1.46.58,3.07.88,4.79.88s3.33-.3,4.79-.88c1.46-.59,2.75-1.44,3.83-2.53,1.07-1.09,1.92-2.37,2.52-3.82.6-1.45.91-3.07.91-4.82s-.3-3.37-.91-4.82c-.6-1.44-1.45-2.73-2.52-3.82-1.08-1.09-2.36-1.94-3.83-2.53-1.46-.58-3.07-.88-4.79-.88Z"/>
        <polygon class="cls-1" points="152.05 185.26 152.05 171.06 134.12 171.06 134.12 185.26 128.76 185.26 128.76 152.92 134.12 152.92 134.12 166.6 152.05 166.6 152.05 152.92 157.41 152.92 157.41 185.26 152.05 185.26"/>
        <rect class="cls-1" x="167.1" y="152.92" width="5.36" height="32.34"/>
        <path class="cls-1" d="m182.2,185.26v-32.34h23.39v4.36h-18.03v9.41h16v4.27h-16v9.93h18.7v4.36h-24.05Zm15.95-35.83l-4.23-2.69-4.23,2.69h-3.66l5.38-4.27h5.02l5.38,4.27h-3.66Zm2.52-4.56c.45-.27.8-.56,1.06-.87.36-.43.54-.88.54-1.32,0-.56-.21-1.02-.61-1.37-.39-.33-.89-.5-1.49-.5s-1.25.15-1.91.44l-.69-1.32c.39-.22.83-.4,1.3-.51.61-.15,1.23-.22,1.82-.22,1.12,0,2.01.3,2.64.89.63.59.94,1.33.94,2.26,0,.83-.25,1.55-.76,2.19-.47.59-1.09,1.05-1.86,1.37l-.98-1.04Z"/>
        <polygon class="cls-1" points="244.35 185.26 244.31 162.27 232.8 181.47 230.5 181.47 218.99 162.57 218.99 185.26 213.92 185.26 213.92 152.92 218.36 152.92 231.73 175.26 244.89 152.92 249.33 152.92 249.38 185.26 244.35 185.26"/>
        <polygon class="cls-1" points="296.35 185.26 277.49 162.11 277.49 185.26 272.18 185.26 272.18 152.92 276.66 152.92 295.52 176.08 295.52 152.92 300.83 152.92 300.83 185.26 296.35 185.26"/>
        <path class="cls-1" d="m325.6,185.73c-2.52,0-4.87-.41-6.98-1.23-2.1-.81-3.96-1.98-5.52-3.47-1.56-1.49-2.79-3.26-3.65-5.29-.86-2.02-1.29-4.26-1.29-6.66s.44-4.64,1.29-6.66c.86-2.02,2.09-3.8,3.67-5.29,1.58-1.49,3.46-2.65,5.57-3.47,2.12-.82,4.48-1.23,7-1.23,2.74,0,5.25.45,7.45,1.34,2.07.84,3.85,2.06,5.3,3.64l-3.33,3.25c-1.25-1.19-2.61-2.09-4.04-2.68-1.54-.63-3.26-.95-5.1-.95s-3.45.29-4.97.88c-1.53.58-2.86,1.43-3.97,2.5-1.11,1.08-1.97,2.36-2.58,3.83-.6,1.46-.91,3.09-.91,4.84s.3,3.33.91,4.79c.6,1.46,1.47,2.76,2.57,3.85,1.1,1.09,2.42,1.94,3.92,2.53,1.49.58,3.17.88,4.97.88,1.68,0,3.32-.27,4.89-.8.72-.25,1.44-.57,2.13-.97l.2-.12v-10.13h5.02v12.61c-1.66,1.29-3.59,2.29-5.75,2.96-2.24.7-4.53,1.05-6.82,1.05Z"/>
        <path class="cls-1" d="m362.15,195.01c-.88,0-1.57-.27-2.13-.83-.56-.56-.83-1.25-.83-2.13s.27-1.57.83-2.13c.56-.56,1.26-.83,2.13-.83s1.54.27,2.11.83c.57.56.85,1.25.85,2.13s-.28,1.57-.85,2.13c-.58.56-1.27.83-2.11.83Zm.05-9.28c-2.52,0-4.88-.42-7-1.25-2.12-.83-3.99-2-5.55-3.49-1.56-1.49-2.79-3.26-3.65-5.26-.86-2.01-1.29-4.24-1.29-6.64s.44-4.63,1.29-6.64c.86-2.01,2.08-3.78,3.65-5.26,1.56-1.49,3.43-2.66,5.55-3.49,2.12-.83,4.46-1.25,6.95-1.25s4.87.42,6.98,1.25c2.1.83,3.96,2,5.53,3.49,1.56,1.49,2.79,3.26,3.65,5.26.86,2.01,1.29,4.24,1.29,6.64s-.44,4.64-1.29,6.66c-.86,2.02-2.08,3.79-3.65,5.26-1.57,1.47-3.43,2.64-5.53,3.47-2.11.83-4.44,1.25-6.93,1.25Zm-.05-28.68c-1.72,0-3.32.3-4.76.88-1.45.59-2.74,1.44-3.82,2.53-1.09,1.09-1.95,2.37-2.55,3.82-.6,1.45-.91,3.07-.91,4.82s.3,3.33.91,4.79c.6,1.46,1.45,2.75,2.52,3.84,1.07,1.09,2.36,1.94,3.83,2.53,1.46.58,3.07.88,4.79.88s3.33-.3,4.79-.88c1.46-.59,2.75-1.44,3.83-2.53,1.07-1.09,1.92-2.37,2.52-3.82.6-1.45.91-3.07.91-4.82s-.3-3.37-.91-4.82c-.6-1.45-1.45-2.73-2.52-3.82-1.08-1.09-2.36-1.94-3.83-2.53-1.46-.58-3.07-.88-4.79-.88Z"/>
        <path class="cls-1" d="m401.86,185.73c-2.46,0-4.78-.41-6.89-1.23-2.1-.81-3.95-1.98-5.5-3.46-1.55-1.49-2.77-3.26-3.62-5.29-.86-2.02-1.29-4.26-1.29-6.66s.44-4.64,1.29-6.66c.86-2.02,2.08-3.8,3.65-5.29,1.57-1.49,3.42-2.66,5.5-3.47,2.09-.81,4.42-1.23,6.91-1.23,2.65,0,5.09.46,7.28,1.37,2.05.85,3.83,2.11,5.28,3.75l-3.41,3.21c-1.16-1.19-2.47-2.1-3.88-2.71-1.53-.67-3.21-1-4.99-1s-3.43.3-4.9.88c-1.48.59-2.78,1.43-3.87,2.5-1.09,1.08-1.95,2.36-2.55,3.83-.6,1.46-.91,3.09-.91,4.84s.3,3.38.91,4.84c.6,1.46,1.46,2.75,2.55,3.83,1.09,1.07,2.39,1.92,3.87,2.5,1.48.58,3.13.88,4.9.88s3.46-.34,4.99-1c1.41-.62,2.72-1.54,3.88-2.76l3.41,3.25c-1.45,1.6-3.23,2.86-5.28,3.73-2.18.92-4.64,1.39-7.32,1.39Z"/>
        <path class="cls-1" d="m433.97,185.26v-32.34h15.13c3.87,0,6.85.76,8.85,2.26,2,1.5,2.96,3.44,2.96,5.95,0,1.68-.39,3.12-1.17,4.3-.73,1.11-1.71,2-2.91,2.64l-.84.44.9.29c.38.12.76.27,1.12.43,1.41.65,2.54,1.59,3.36,2.82.82,1.22,1.23,2.77,1.23,4.61,0,2.73-1.01,4.79-3.1,6.3-2.1,1.52-5.28,2.29-9.47,2.29h-16.07Zm5.36-4.03h10.34c2.37,0,4.22-.4,5.51-1.19,1.35-.83,2.04-2.17,2.04-3.98s-.68-3.11-2.03-3.96c-1.29-.81-3.14-1.22-5.51-1.22h-10.34v10.36Zm0-14.34h9.11c2.21,0,3.95-.4,5.17-1.2,1.27-.83,1.91-2.09,1.91-3.74s-.64-2.96-1.91-3.79c-1.21-.8-2.95-1.2-5.17-1.2h-9.11v9.93Z"/>
        <path class="cls-1" d="m494.66,185.26l-3.29-7.67h-17.1l-3.28,7.67h-5.46l14.55-32.34h5.54l14.6,32.34h-5.56Zm-18.67-11.7h13.64l-6.83-15.91-6.81,15.91Zm5.79-24.37c.73-.4,1.27-.82,1.63-1.27.45-.56.68-1.19.68-1.88,0-.75-.26-1.36-.77-1.81-.5-.44-1.17-.67-1.99-.67-.89,0-1.77.25-2.63.73l-.93-1.86c.58-.38,1.21-.68,1.88-.89.78-.24,1.57-.36,2.34-.36.94,0,1.8.19,2.55.55.74.36,1.3.86,1.71,1.51.4.64.6,1.42.6,2.32,0,1.14-.32,2.16-.94,3.03-.59.83-1.51,1.55-2.73,2.16l-1.4-1.57Z"/>
        <path class="cls-1" d="m520.1,185.73c-2.52,0-4.88-.42-7-1.25-2.12-.83-3.99-2-5.55-3.49-1.56-1.49-2.79-3.26-3.65-5.26-.86-2.01-1.29-4.24-1.29-6.64s.44-4.63,1.29-6.64c.86-2.01,2.08-3.78,3.65-5.26,1.56-1.49,3.43-2.66,5.55-3.49,2.12-.83,4.46-1.25,6.96-1.25s4.87.42,6.98,1.25c2.1.83,3.96,2,5.53,3.49,1.56,1.48,2.79,3.26,3.65,5.26.86,2.01,1.29,4.24,1.29,6.64s-.44,4.64-1.29,6.66c-.86,2.02-2.08,3.79-3.65,5.26-1.56,1.47-3.42,2.64-5.53,3.47-2.11.83-4.44,1.25-6.93,1.25Zm-.05-28.68c-1.72,0-3.32.3-4.76.88-1.45.59-2.73,1.44-3.83,2.53-1.09,1.09-1.95,2.38-2.55,3.82-.6,1.45-.91,3.07-.91,4.82s.3,3.33.91,4.79c.6,1.46,1.45,2.75,2.52,3.84,1.07,1.09,2.36,1.94,3.83,2.53,1.46.58,3.07.88,4.79.88s3.33-.3,4.79-.88c1.46-.59,2.75-1.44,3.83-2.53,1.07-1.09,1.92-2.37,2.52-3.82.6-1.45.91-3.07.91-4.82s-.3-3.37-.91-4.82c-.6-1.45-1.45-2.73-2.52-3.82-1.08-1.09-2.36-1.94-3.83-2.53-1.46-.58-3.07-.88-4.79-.88Z"/>
      </g>
      <line class="cls-3" x1="73.65" y1="68.78" x2="72.67" y2="67.8"/>
      <line class="cls-3" x1="51.63" y1="46.76" x2="51.07" y2="46.2"/>
      <path class="cls-4" d="m51.64,46.76l21.03,21.04v-21.04h-21.03Z"/>
    </g>
  </g>
</svg>